<?xml version="1.0" encoding="UTF-8"?>
<!DOCTYPE svg PUBLIC "-//W3C//DTD SVG 1.1//EN" "http://www.w3.org/Graphics/SVG/1.1/DTD/svg11.dtd">
<svg xmlns="http://www.w3.org/2000/svg" version="1.1" width="1080px" height="1080px" style="shape-rendering:geometricPrecision; text-rendering:geometricPrecision; image-rendering:optimizeQuality; fill-rule:evenodd; clip-rule:evenodd" xmlns:xlink="http://www.w3.org/1999/xlink">
<g><path style="opacity:0.986" fill="#000000" d="M 519.5,188.5 C 523.167,188.5 526.833,188.5 530.5,188.5C 530.5,272.5 530.5,356.5 530.5,440.5C 507.833,440.5 485.167,440.5 462.5,440.5C 462.833,383.829 462.5,327.163 461.5,270.5C 368.7,303.466 307.2,366.799 277,460.5C 251.258,561.488 271.925,651.488 339,730.5C 373.191,767.343 414.191,793.676 462,809.5C 462.5,738.501 462.667,667.501 462.5,596.5C 429.5,596.5 396.5,596.5 363.5,596.5C 363.5,573.5 363.5,550.5 363.5,527.5C 419.167,527.5 474.833,527.5 530.5,527.5C 530.5,648.5 530.5,769.5 530.5,890.5C 425.222,883.615 339.389,839.615 273,758.5C 204.806,668.008 182.806,567.008 207,455.5C 238.105,342.021 307.272,261.521 414.5,214C 448.355,200.285 483.355,191.785 519.5,188.5 Z"/></g>
<g><path style="opacity:0.989" fill="#000000" d="M 553.5,188.5 C 661.138,195.756 748.304,241.423 815,325.5C 844.633,364.772 865.133,408.439 876.5,456.5C 853.164,456.667 829.831,456.5 806.5,456C 779.581,377.757 729.248,320.09 655.5,283C 644.477,277.937 633.144,273.771 621.5,270.5C 621.5,356.167 621.5,441.833 621.5,527.5C 666.167,527.5 710.833,527.5 755.5,527.5C 755.5,550.167 755.5,572.833 755.5,595.5C 710.833,595.5 666.167,595.5 621.5,595.5C 621.5,690.833 621.5,786.167 621.5,881.5C 599.127,886.673 576.46,889.673 553.5,890.5C 553.5,656.5 553.5,422.5 553.5,188.5 Z"/></g>
</svg>
